<svg width="24" height="25" viewBox="0 0 24 25" fill="none" xmlns="http://www.w3.org/2000/svg">
<path fill-rule="evenodd" clip-rule="evenodd" d="M21.2947 22.0594L20.2164 18.0379C20.1546 17.8125 20.1855 17.5695 20.2916 17.3573C21.2329 15.4703 21.5466 13.2165 20.9677 10.8655C20.1811 7.68365 17.6975 5.12934 14.5245 4.28526C13.6583 4.05988 12.8054 3.9494 11.979 3.9494C6.0484 3.9494 1.41705 9.51321 3.01681 15.7045C3.75924 18.5682 6.81734 21.5335 9.69426 22.2317C10.472 22.4218 11.2366 22.5102 11.979 22.5102C13.5743 22.5102 15.068 22.0992 16.3805 21.3921C16.5264 21.3125 16.6899 21.2684 16.849 21.2684C16.9285 21.2684 17.0081 21.2772 17.0876 21.2993L21.0031 22.3466C21.0252 22.3511 21.0473 22.3555 21.0649 22.3555C21.2152 22.3555 21.3345 22.2141 21.2947 22.0594ZM18.9791 18.3693L19.5889 20.6452L17.4191 20.0663C17.2335 20.0177 17.0434 19.9912 16.849 19.9912C16.4778 19.9912 16.1021 20.0884 15.7663 20.2696C14.5863 20.906 13.3136 21.2286 11.979 21.2286C11.3205 21.2286 10.6532 21.1446 9.99477 20.9855C7.55977 20.3933 4.8773 17.7772 4.25861 15.3819C3.6134 12.8807 4.12161 10.3131 5.65067 8.33769C7.17972 6.3623 9.48656 5.23098 11.979 5.23098C12.7126 5.23098 13.4594 5.3282 14.1975 5.52707C16.9241 6.25182 19.0409 8.41724 19.7259 11.1748C20.2076 13.1193 20.0087 15.0593 19.147 16.7873C18.8995 17.2822 18.8376 17.8435 18.9791 18.3693Z" fill="#333333"/>
<path fill-rule="evenodd" clip-rule="evenodd" d="M3.36125 15.6154C1.821 9.65421 6.276 4.30516 11.979 4.30516C12.7733 4.30516 13.5958 4.4113 14.4339 4.6293C17.4796 5.43986 19.8666 7.89389 20.6224 10.9509C21.1807 13.2187 20.8773 15.3859 19.9734 17.1982C19.8321 17.4809 19.7862 17.8134 19.8731 18.131C19.8732 18.1313 19.8733 18.1317 19.8734 18.1321L20.8971 21.95L17.1829 20.9565C17.1823 20.9563 17.1817 20.9562 17.1811 20.956C17.0662 20.9243 16.9546 20.9126 16.849 20.9126C16.6259 20.9126 16.4045 20.9739 16.211 21.0793C14.9476 21.7598 13.5119 22.1544 11.979 22.1544C11.265 22.1544 10.5288 22.0694 9.77871 21.8861L9.77818 21.886C8.41701 21.5556 6.98753 20.6799 5.80347 19.5254C4.61931 18.3708 3.71196 16.968 3.36125 15.6154ZM11.979 5.58673C9.59675 5.58673 7.39375 6.66701 5.93201 8.55545C4.47284 10.4406 3.98432 12.8941 4.60308 15.293C4.8914 16.4092 5.67241 17.6077 6.69412 18.6053C7.71546 19.6025 8.94055 20.3629 10.0787 20.6398C10.7116 20.7927 11.3508 20.8728 11.979 20.8728C13.2543 20.8728 14.469 20.565 15.5974 19.9565C15.9831 19.7484 16.4165 19.6354 16.849 19.6354C17.0761 19.6354 17.2965 19.6664 17.5092 19.7222L17.5108 19.7226L19.086 20.1428L18.6355 18.4617C18.4706 17.8486 18.5438 17.1981 18.8288 16.6281C19.651 14.9793 19.8428 13.1264 19.3806 11.2606C18.7266 8.62741 16.706 6.56194 14.1061 5.87088L14.1049 5.87057C13.3969 5.6798 12.6812 5.58673 11.979 5.58673Z" fill="#333333"/>
<path fill-rule="evenodd" clip-rule="evenodd" d="M11.979 3.59363C5.82084 3.59363 1.01316 9.37213 2.67236 15.7935C3.06412 17.3046 4.05708 18.8164 5.30675 20.0349C6.55644 21.2534 8.09425 22.2094 9.60983 22.5773C10.4153 22.7741 11.2082 22.8659 11.979 22.8659C13.6365 22.8659 15.1879 22.4387 16.5493 21.7053L16.5509 21.7044C16.6489 21.651 16.7543 21.6241 16.849 21.6241C16.9019 21.6241 16.9488 21.63 16.9924 21.6421L20.9221 22.6933L20.9333 22.6955L20.9365 22.6961C20.9526 22.6995 21.0089 22.7112 21.0649 22.7112C21.4368 22.7112 21.7397 22.361 21.6393 21.9708L20.5601 17.9457L20.5595 17.9437C20.523 17.8108 20.5393 17.6574 20.6099 17.5161C21.5884 15.5546 21.9124 13.2141 21.3131 10.7801C20.4957 7.47368 17.9158 4.81926 14.6159 3.94144L14.6141 3.94095C13.7202 3.70837 12.8372 3.59363 11.979 3.59363ZM11.979 4.30516C6.276 4.30516 1.821 9.65421 3.36125 15.6154C3.71196 16.968 4.61931 18.3708 5.80347 19.5254C6.98753 20.6799 8.41701 21.5556 9.77818 21.886L9.77871 21.8861C10.5288 22.0694 11.265 22.1544 11.979 22.1544C13.5119 22.1544 14.9476 21.7598 16.211 21.0793C16.4045 20.9739 16.6259 20.9126 16.849 20.9126C16.9546 20.9126 17.0662 20.9243 17.1811 20.956L17.1829 20.9565L20.8971 21.95L19.8734 18.1321L19.8731 18.131C19.7862 17.8134 19.8321 17.4809 19.9734 17.1982C20.8773 15.3859 21.1807 13.2187 20.6224 10.9509C19.8666 7.89389 17.4796 5.43986 14.4339 4.6293C13.5958 4.4113 12.7733 4.30516 11.979 4.30516Z" fill="#333333"/>
</svg>
