<svg width="22" height="22" viewBox="0 0 22 22" fill="none" xmlns="http://www.w3.org/2000/svg">
<path fill-rule="evenodd" clip-rule="evenodd" d="M19.6258 19.3153C19.7916 19.1512 19.7921 18.8835 19.6269 18.7188L15.8951 14.9984C17.166 13.5845 17.9445 11.7259 17.9445 9.67858C17.9445 5.2776 14.3633 1.70731 9.94891 1.70731C5.53449 1.70731 1.95331 5.2776 1.95331 9.67858C1.95331 14.0796 5.53449 17.6498 9.94891 17.6498C12.0109 17.6498 13.8794 16.8653 15.2975 15.5899L19.0332 19.3142C19.1969 19.4774 19.4616 19.4779 19.6258 19.3153ZM2.79495 9.67858C2.79495 5.74749 6.00581 2.54639 9.94891 2.54639C13.892 2.54639 17.1029 5.74749 17.1029 9.67858C17.1029 13.6097 13.892 16.8108 9.94891 16.8108C6.00581 16.8108 2.79495 13.6097 2.79495 9.67858Z" fill="#333333" stroke="#333333" stroke-width="0.852466" stroke-linecap="round" stroke-linejoin="round"/>
</svg>
