<svg width="22" height="22" viewBox="0 0 22 22" fill="none" xmlns="http://www.w3.org/2000/svg">
<path fill-rule="evenodd" clip-rule="evenodd" d="M11.1415 3.23086C10.127 3.23086 9.30463 4.05077 9.30463 5.06216V6.0595H7.77643V5.06216C7.77643 3.20933 9.28304 1.70731 11.1415 1.70731C13 1.70731 14.5066 3.20933 14.5066 5.06217V6.0595H12.9784V5.06217C12.9784 4.05077 12.156 3.23086 11.1415 3.23086ZM15.6621 7.58308H6.22004C5.68205 7.58308 5.23678 8.00011 5.20323 8.53542L4.80149 14.9436C4.67319 16.9902 6.30352 18.7203 8.36035 18.7203H13.5218C15.5786 18.7203 17.209 16.9902 17.0807 14.9436L16.6789 8.53542C16.6454 8.00011 16.2001 7.58308 15.6621 7.58308ZM6.22004 6.05953C4.87506 6.05953 3.7619 7.10211 3.678 8.44038L3.27627 14.8486C3.09298 17.7723 5.42202 20.2439 8.36035 20.2439H13.5218C16.4601 20.2439 18.7892 17.7723 18.6059 14.8486L18.2042 8.44038C18.1203 7.10211 17.0071 6.05953 15.6621 6.05953H6.22004ZM12.9781 9.45042C12.9781 10.4618 12.1557 11.2817 11.1412 11.2817C10.1268 11.2817 9.30436 10.4618 9.30436 9.45042L9.30436 9.25095C9.30436 8.83024 8.96226 8.48918 8.54026 8.48918C8.11826 8.48918 7.77616 8.83024 7.77616 9.25095V9.45042C7.77616 11.3033 9.28276 12.8053 11.1412 12.8053C12.9997 12.8053 14.5063 11.3033 14.5063 9.45042V9.25095C14.5063 8.83024 14.1642 8.48918 13.7422 8.48918C13.3202 8.48918 12.9781 8.83024 12.9781 9.25095V9.45042Z" fill="#333333"/>
</svg>
